<svg width="23" height="23" viewBox="0 0 23 23" fill="none" xmlns="http://www.w3.org/2000/svg">
<g clip-path="url(#clip0_347_1824)">
<g clip-path="url(#clip1_347_1824)">
<path d="M0 11.4999C0 17.841 5.15884 22.9999 11.4999 22.9999C17.8409 22.9999 22.9997 17.841 22.9997 11.4999C22.9997 5.15884 17.8409 0 11.4999 0C5.15884 0 0 5.15884 0 11.4999ZM11.4999 3.15717C16.1002 3.15717 19.8428 6.89981 19.8428 11.5001C19.8428 13.2309 19.3127 14.8401 18.4068 16.1744L6.8255 4.59325C8.15987 3.6873 9.7691 3.15717 11.4999 3.15717ZM16.1742 18.4068C14.8399 19.3127 13.2308 19.8428 11.4999 19.8428C6.89967 19.8428 3.15717 16.1002 3.15717 11.4999C3.15717 9.76911 3.6873 8.16 4.59312 6.82563L16.1742 18.4068Z" fill="white"/>
</g>
</g>
<defs>
<clipPath id="clip0_347_1824">
<rect width="23" height="23" fill="white" transform="matrix(-1 0 0 1 23 0)"/>
</clipPath>
<clipPath id="clip1_347_1824">
<rect width="23" height="23" fill="white"/>
</clipPath>
</defs>
</svg>
