<svg width="20" height="20" viewBox="0 0 20 20" fill="none" xmlns="http://www.w3.org/2000/svg">
<path d="M12.13 12.9566L11.7504 13.3562C11.7504 13.3562 10.8483 14.306 8.38575 11.7134C5.92327 9.12083 6.82542 8.17105 6.82542 8.17105L7.06444 7.91942C7.65323 7.29953 7.70874 6.3043 7.19504 5.57775L6.14422 4.0915C5.5084 3.19225 4.2798 3.07345 3.55104 3.8407L2.24304 5.21778C1.88169 5.59821 1.63954 6.09137 1.66891 6.63845C1.74404 8.03805 2.34209 11.0493 5.6793 14.5628C9.21825 18.2887 12.5388 18.4367 13.8968 18.3027C14.3263 18.2603 14.6998 18.0287 15.0008 17.7118L16.1846 16.4655C16.9837 15.6242 16.7583 14.182 15.7359 13.5935L14.1438 12.6771C13.4725 12.2907 12.6547 12.4042 12.13 12.9566Z" fill="#504B38"/>
</svg>
