<svg width="49" height="49" viewBox="0 0 49 49" fill="none" xmlns="http://www.w3.org/2000/svg">
<path fill-rule="evenodd" clip-rule="evenodd" d="M42.875 9.1875H38.2812L36.75 6.125C35.8481 4.34416 35.378 3.0625 33.6875 3.0625H15.3125C13.622 3.0625 13.0616 4.52331 12.25 6.125L10.7188 9.1875H6.125C2.74247 9.1875 0 11.93 0 15.3125V39.8125C0 43.195 2.74247 45.9375 6.125 45.9375H42.875C46.2575 45.9375 49 43.195 49 39.8125V15.3125C49 11.93 46.2575 9.1875 42.875 9.1875ZM24.5 39.8125C17.7349 39.8125 12.25 34.3276 12.25 27.5625C12.25 20.7974 17.7349 15.3125 24.5 15.3125C31.2651 15.3125 36.75 20.7974 36.75 27.5625C36.75 34.3276 31.2651 39.8125 24.5 39.8125ZM24.5 18.375C19.427 18.375 15.3125 22.4895 15.3125 27.5625C15.3125 32.6355 19.427 36.75 24.5 36.75C29.573 36.75 33.6875 32.6355 33.6875 27.5625C33.6875 22.4895 29.573 18.375 24.5 18.375Z" fill="black"/>
</svg>
