<svg width="34" height="34" viewBox="0 0 34 34" fill="none" xmlns="http://www.w3.org/2000/svg">
<path d="M31.1668 17.0002C31.1668 24.8241 24.8241 31.1668 17.0002 31.1668C9.17612 31.1668 2.8335 24.8241 2.8335 17.0002C2.8335 9.17612 9.17612 2.8335 17.0002 2.8335C24.8241 2.8335 31.1668 9.17612 31.1668 17.0002Z" fill="#504B38"/>
<path fill-rule="evenodd" clip-rule="evenodd" d="M17 10.271C17.5868 10.271 18.0625 10.7467 18.0625 11.3335V16.56L21.2929 19.7906C21.7079 20.2055 21.7079 20.8781 21.2929 21.2931C20.878 21.708 20.2053 21.708 19.7904 21.2931L16.2487 17.7514C16.0494 17.5522 15.9375 17.2819 15.9375 17.0002V11.3335C15.9375 10.7467 16.4132 10.271 17 10.271Z" fill="white"/>
</svg>
