<svg width="34" height="34" viewBox="0 0 34 34" fill="none" xmlns="http://www.w3.org/2000/svg">
<g clip-path="url(#clip0_347_1469)">
<path d="M25.9145 6.08163L6.08131 25.9148C5.52808 26.468 5.52808 27.365 6.08131 27.9182C6.63455 28.4715 7.53153 28.4715 8.08476 27.9182L27.9179 8.08508C28.4712 7.53184 28.4712 6.63487 27.9179 6.08163C27.3647 5.52839 26.4677 5.52839 25.9145 6.08163Z" fill="#504B38"/>
<path d="M9.91667 15.5833C13.0461 15.5833 15.5833 13.0461 15.5833 9.91667C15.5833 6.78725 13.0461 4.25 9.91667 4.25C6.78725 4.25 4.25 6.78725 4.25 9.91667C4.25 13.0461 6.78725 15.5833 9.91667 15.5833ZM9.91667 7.08333C11.4792 7.08333 12.75 8.35408 12.75 9.91667C12.75 11.4792 11.4792 12.75 9.91667 12.75C8.35408 12.75 7.08333 11.4792 7.08333 9.91667C7.08333 8.35408 8.35408 7.08333 9.91667 7.08333Z" fill="#504B38"/>
<path d="M24.0832 29.7498C27.2126 29.7498 29.7498 27.2126 29.7498 24.0832C29.7498 20.9538 27.2126 18.4165 24.0832 18.4165C20.9538 18.4165 18.4165 20.9538 18.4165 24.0832C18.4165 27.2126 20.9538 29.7498 24.0832 29.7498ZM24.0832 21.2498C25.6458 21.2498 26.9165 22.5206 26.9165 24.0832C26.9165 25.6458 25.6458 26.9165 24.0832 26.9165C22.5206 26.9165 21.2498 25.6458 21.2498 24.0832C21.2498 22.5206 22.5206 21.2498 24.0832 21.2498Z" fill="#504B38"/>
</g>
<defs>
<clipPath id="clip0_347_1469">
<rect width="34" height="34" fill="white"/>
</clipPath>
</defs>
</svg>
