<svg width="77" height="77" viewBox="0 0 77 77" fill="none" xmlns="http://www.w3.org/2000/svg">
<path d="M64.9688 36.0938H12.0312C10.5875 36.0938 9.625 35.1312 9.625 33.6875V4.8125C9.625 3.36875 10.5875 2.40625 12.0312 2.40625H64.9688C66.4125 2.40625 67.375 3.36875 67.375 4.8125V33.6875C67.375 35.1312 66.4125 36.0938 64.9688 36.0938ZM14.4375 31.2812H62.5625V7.21875H14.4375V31.2812Z" fill="black"/>
<path d="M38.5 28.875C34.4094 28.875 31.2812 24.5437 31.2812 19.25C31.2812 13.9562 34.4094 9.625 38.5 9.625C42.5906 9.625 45.7188 13.9562 45.7188 19.25C45.7188 24.5437 42.5906 28.875 38.5 28.875Z" fill="black"/>
<path d="M71.9469 39.7031C71.4656 38.9812 70.7438 38.5 69.7813 38.5C64.4875 38.5 59.4344 40.9062 56.3063 45.2375L54.1406 48.125C51.4938 51.2531 47.4031 52.9375 43.3125 52.9375H36.0938C34.65 52.9375 33.6875 51.975 33.6875 50.5312C33.6875 49.0875 34.65 48.125 36.0938 48.125H40.6656C44.5156 48.125 48.125 44.9969 48.125 41.1469V40.9062C48.125 39.7031 46.9219 38.5 45.7188 38.5H31.0406C22.3781 38.5 15.4 42.35 11.55 48.6063L5.05314 58.7125C4.57189 59.4344 4.57189 60.3969 5.05314 61.1187L12.2719 73.15C12.5125 73.6312 13.2344 74.1125 13.7156 74.3531C13.9563 74.3531 13.9563 74.3531 14.1969 74.3531C14.6781 74.3531 15.1594 74.1125 15.6406 73.8719C24.7844 67.8563 35.3719 64.7281 46.2 64.7281C54.1406 64.7281 61.3594 60.3969 65.2094 53.4188L71.7063 41.8687C72.1875 41.3875 72.1875 40.425 71.9469 39.7031Z" fill="black"/>
<path d="M21.6562 4.8125H19.25H12.0312V12.0312V14.4375V16.8438C18.7687 16.8438 24.0625 11.55 24.0625 4.8125H21.6562Z" fill="black"/>
<path d="M12.0312 24.0625V26.4688V33.6875H19.25H21.6562H24.0625C24.0625 26.95 18.7687 21.6562 12.0312 21.6562V24.0625Z" fill="black"/>
<path d="M55.3438 33.6875H57.75H64.9688V26.4688V24.0625V21.6562C58.2313 21.6562 52.9375 26.95 52.9375 33.6875H55.3438Z" fill="black"/>
<path d="M64.9688 14.4375V12.0312V4.8125H57.75H55.3438H52.9375C52.9375 11.55 58.2313 16.8438 64.9688 16.8438V14.4375Z" fill="black"/>
</svg>
