<svg width="23" height="23" viewBox="0 0 23 23" fill="none" xmlns="http://www.w3.org/2000/svg">
<path d="M16.3557 2.17676C16.7706 2.00494 17.2151 1.9165 17.6641 1.9165C18.1131 1.9165 18.5577 2.00494 18.9725 2.17676C19.3873 2.34858 19.7642 2.60042 20.0817 2.9179C20.3992 3.23537 20.651 3.61227 20.8229 4.02709C20.9946 4.44189 21.0831 4.88648 21.0831 5.33546C21.0831 5.78444 20.9946 6.22903 20.8229 6.64385C20.651 7.05865 20.3992 7.43556 20.0817 7.75303L19.5851 8.2496L14.75 3.41446L15.2465 2.9179C15.564 2.60042 15.9409 2.34858 16.3557 2.17676Z" fill="white"/>
<path d="M13.3944 4.76953L3.50167 14.6622C3.38374 14.7801 3.29863 14.9268 3.25475 15.0877L1.9498 19.8725C1.85932 20.2043 1.95355 20.5591 2.19673 20.8023C2.43991 21.0455 2.79474 21.1397 3.12652 21.0492L7.91132 19.7443C8.07222 19.7004 8.21889 19.6153 8.33681 19.4973L18.2294 9.60471L13.3944 4.76953Z" fill="white"/>
</svg>
