<svg width="66" height="66" viewBox="0 0 66 66" fill="none" xmlns="http://www.w3.org/2000/svg">
<path d="M64.1665 29.3332H60.7863C59.778 27.0415 58.3113 25.0134 56.5009 23.3175L58.6665 14.6665H54.9999C51.6311 14.6665 48.6519 16.2134 46.6353 18.5967C45.7644 18.4707 44.9051 18.3332 43.9999 18.3332H29.3332C20.4644 18.3332 13.0738 24.6353 11.3665 32.9998H6.41652C4.72069 32.9998 3.38007 31.453 3.72382 29.6998C3.9759 28.3936 5.20194 27.4998 6.53111 27.4998H6.64569C7.02382 27.4998 7.33319 27.1905 7.33319 26.8123V24.5207C7.33319 24.1425 7.02382 23.8332 6.64569 23.8332C3.38007 23.8332 0.46965 26.1707 0.05715 29.4019C-0.447017 33.3207 2.6009 36.6665 6.41652 36.6665H10.9999C10.9999 42.6478 13.9103 47.9071 18.3332 51.253V60.4998C18.3332 61.5082 19.1582 62.3332 20.1665 62.3332H27.4999C28.5082 62.3332 29.3332 61.5082 29.3332 60.4998V54.9998H43.9999V60.4998C43.9999 61.5082 44.8249 62.3332 45.8332 62.3332H53.1665C54.1749 62.3332 54.9999 61.5082 54.9999 60.4998V51.253C56.3519 50.2332 57.5551 49.03 58.5863 47.6665H64.1665C65.1749 47.6665 65.9999 46.8415 65.9999 45.8332V31.1665C65.9999 30.1582 65.1749 29.3332 64.1665 29.3332ZM49.4999 36.6665C48.4915 36.6665 47.6665 35.8415 47.6665 34.8332C47.6665 33.8248 48.4915 32.9998 49.4999 32.9998C50.5082 32.9998 51.3332 33.8248 51.3332 34.8332C51.3332 35.8415 50.5082 36.6665 49.4999 36.6665ZM29.3332 14.6665H43.9999C44.6186 14.6665 45.2259 14.7123 45.8217 14.7582C45.8217 14.7238 45.8332 14.7009 45.8332 14.6665C45.8332 8.59359 40.9061 3.6665 34.8332 3.6665C28.7603 3.6665 23.8332 8.59359 23.8332 14.6665C23.8332 14.9071 23.8905 15.1363 23.9019 15.3769C25.6436 14.93 27.454 14.6665 29.3332 14.6665Z" fill="#504B38"/>
</svg>
