<svg width="54" height="54" viewBox="0 0 54 54" fill="none" xmlns="http://www.w3.org/2000/svg">
<g clip-path="url(#clip0_347_851)">
<path d="M50.1963 13.3873C50.1963 9.05355 44.3929 5.78613 36.6963 5.78613C28.9997 5.78613 23.1963 9.05355 23.1963 13.3873C23.1963 13.4258 23.2047 13.4621 23.2058 13.5001H23.1963V19.2856H27.0533V18.8078C29.4669 20.1689 32.844 20.9873 36.6963 20.9873C40.2501 20.9873 43.3899 20.2844 45.7513 19.1079C46.1173 19.4865 46.3393 19.863 46.3393 20.1932C46.3393 21.6829 42.4934 23.9362 36.6963 23.9362H32.8404V27.7932H36.6963C40.2506 27.7932 43.3914 27.0903 45.7529 25.9133C46.1194 26.2914 46.3388 26.6679 46.3388 26.9996C46.3388 28.4904 42.4929 30.7437 36.6958 30.7437L35.3305 30.7501C34.4915 30.7574 33.6788 30.7654 32.8868 30.7443L32.7924 34.5997C33.2163 34.6102 33.6456 34.6139 34.0833 34.6139C34.5015 34.6139 34.9271 34.6113 35.3595 34.6076L36.6958 34.6013C40.2522 34.6013 43.3941 33.8972 45.7561 32.7192C46.1236 33.1004 46.3382 33.4791 46.3382 33.8065C46.3382 35.2973 42.4923 37.5507 36.6952 37.5507H32.8393V41.4077H36.6952C40.2516 41.4077 43.393 40.7037 45.7555 39.5256C46.1236 39.9063 46.3382 40.285 46.3382 40.613C46.3382 42.1038 42.4923 44.3571 36.6952 44.3571H32.8393V48.2141H36.6952C44.3918 48.2141 50.1952 44.9467 50.1952 40.613C50.1952 40.5771 50.1905 40.5365 50.1894 40.5001H50.1952V13.5001H50.1857C50.1873 13.4621 50.1963 13.4252 50.1963 13.3873ZM27.0533 13.3873C27.0533 11.8965 30.8992 9.64313 36.6963 9.64313C42.4934 9.64313 46.3393 11.8965 46.3393 13.3873C46.3393 14.877 42.4934 17.1304 36.6963 17.1304C30.8992 17.1304 27.0533 14.877 27.0533 13.3873Z" fill="#504B38"/>
<path d="M17.4102 19.2856C9.71357 19.2856 3.91016 22.5531 3.91016 26.8868C3.91016 26.9253 3.91859 26.9617 3.91965 26.9996H3.91016V40.4996C3.91016 44.8333 9.71357 48.1008 17.4102 48.1008C25.1067 48.1008 30.9102 44.8333 30.9102 40.4996V27.0002H30.9007C30.9017 26.9622 30.9102 26.9253 30.9102 26.8873C30.9102 22.5536 25.1067 19.2856 17.4102 19.2856ZM7.76715 33.6937C7.76715 33.3605 7.98494 32.9845 8.35145 32.6063C10.7134 33.7839 13.8548 34.4874 17.4102 34.4874C20.9639 34.4874 24.1037 33.7844 26.4652 32.6079C26.8312 32.9866 27.0532 33.3631 27.0532 33.6932C27.0532 35.183 23.2072 37.4363 17.4102 37.4363C11.6131 37.4363 7.76715 35.1835 7.76715 33.6937ZM17.4102 23.1432C23.2072 23.1432 27.0532 25.3965 27.0532 26.8873C27.0532 28.3771 23.2072 30.6304 17.4102 30.6304C11.6131 30.6304 7.76715 28.3771 7.76715 26.8873C7.76715 25.3965 11.6131 23.1432 17.4102 23.1432ZM17.4102 44.2443C11.6131 44.2443 7.76715 41.991 7.76715 40.5002C7.76715 40.1685 7.98705 39.7919 8.35303 39.4138C10.715 40.5909 13.8553 41.2943 17.4102 41.2943C20.9645 41.2943 24.1053 40.5914 26.4668 39.4144C26.8333 39.7925 27.0526 40.169 27.0526 40.5007C27.0532 41.991 23.2072 44.2443 17.4102 44.2443Z" fill="#504B38"/>
</g>
<defs>
<clipPath id="clip0_347_851">
<rect width="54" height="54" fill="white"/>
</clipPath>
</defs>
</svg>
