<svg width="23" height="23" viewBox="0 0 23 23" fill="none" xmlns="http://www.w3.org/2000/svg">
<path d="M7.66602 1.43734V2.39567H2.87435C2.34508 2.39567 1.91602 2.82474 1.91602 3.354V4.31234C1.91602 4.84161 2.34508 5.27067 2.87435 5.27067H20.1243C20.6536 5.27067 21.0827 4.84161 21.0827 4.31234V3.354C21.0827 2.82474 20.6536 2.39567 20.1243 2.39567H15.3327V1.43734C15.3327 0.908064 14.9036 0.479004 14.3743 0.479004H8.62435C8.09508 0.479004 7.66602 0.908064 7.66602 1.43734Z" fill="white"/>
<path d="M3.75977 7.1875H19.2403L18.3373 19.379C18.226 20.8804 16.9756 22.0417 15.4701 22.0417H7.52998C6.02456 22.0417 4.77405 20.8804 4.66284 19.379L3.75977 7.1875Z" fill="white"/>
</svg>
