<svg width="52" height="52" viewBox="0 0 52 52" fill="none" xmlns="http://www.w3.org/2000/svg">
<path d="M35.8098 4.3335H16.1894C13.5832 4.3335 12.2802 4.3335 11.233 4.98068C10.1859 5.62786 9.60312 6.79333 8.43765 9.1243L5.39647 16.812C4.69385 18.5881 4.0791 20.6815 5.26184 22.1814C6.05531 23.1876 7.28529 23.8335 8.66619 23.8335C11.0594 23.8335 12.9995 21.8935 12.9995 19.5002C12.9995 21.8935 14.9396 23.8335 17.3329 23.8335C19.7261 23.8335 21.6662 21.8935 21.6662 19.5002C21.6662 21.8935 23.6063 23.8335 25.9996 23.8335C28.3929 23.8335 30.3329 21.8935 30.3329 19.5002C30.3329 21.8935 32.2729 23.8335 34.6662 23.8335C37.0595 23.8335 38.9996 21.8935 38.9996 19.5002C38.9996 21.8935 40.9396 23.8335 43.3329 23.8335C44.7137 23.8335 45.9437 23.1876 46.7374 22.1814C47.9202 20.6815 47.3055 18.5881 46.6028 16.812L43.5617 9.1243C42.396 6.79333 41.8134 5.62786 40.7663 4.98068C39.7191 4.3335 38.4161 4.3335 35.8098 4.3335Z" fill="#504B38"/>
<path fill-rule="evenodd" clip-rule="evenodd" d="M43.3335 46.0416H47.6668C48.5643 46.0416 49.2918 46.7692 49.2918 47.6666C49.2918 48.564 48.5643 49.2916 47.6668 49.2916H4.3335C3.43604 49.2916 2.7085 48.564 2.7085 47.6666C2.7085 46.7692 3.43604 46.0416 4.3335 46.0416H8.66683V27.0833C10.278 27.0833 11.7719 26.5808 13.0002 25.7241C14.2285 26.5808 15.7223 27.0833 17.3335 27.0833C18.9447 27.0833 20.4385 26.5808 21.6668 25.7241C22.8951 26.5808 24.389 27.0833 26.0002 27.0833C27.6113 27.0833 29.1052 26.5808 30.3335 25.7241C31.5618 26.5808 33.0557 27.0833 34.6668 27.0833C36.278 27.0833 37.7719 26.5808 39.0002 25.7241C40.2284 26.5808 41.7224 27.0833 43.3335 27.0833V46.0416ZM20.5835 46.0416H31.4168V40.0833C31.4168 38.0583 31.4168 37.0458 30.9813 36.2916C30.6962 35.7976 30.2858 35.3872 29.7918 35.1019C29.0376 34.6666 28.0251 34.6666 26.0002 34.6666C23.9752 34.6666 22.9627 34.6666 22.2085 35.1019C21.7145 35.3872 21.3041 35.7976 21.0189 36.2916C20.5835 37.0458 20.5835 38.0583 20.5835 40.0833V46.0416Z" fill="#504B38"/>
</svg>
