<svg width="95" height="96" viewBox="0 0 95 96" fill="none" xmlns="http://www.w3.org/2000/svg">
<path d="M0 24C0 20.8174 1.25111 17.7652 3.47811 15.5147C5.7051 13.2643 8.72555 12 11.875 12H83.125C86.2744 12 89.2949 13.2643 91.5219 15.5147C93.7489 17.7652 95 20.8174 95 24V30H0V24ZM0 42V72C0 75.1826 1.25111 78.2348 3.47811 80.4853C5.7051 82.7357 8.72555 84 11.875 84H83.125C86.2744 84 89.2949 82.7357 91.5219 80.4853C93.7489 78.2348 95 75.1826 95 72V42H0ZM17.8125 54H23.75C25.3247 54 26.8349 54.6321 27.9484 55.7574C29.0619 56.8826 29.6875 58.4087 29.6875 60V66C29.6875 67.5913 29.0619 69.1174 27.9484 70.2426C26.8349 71.3679 25.3247 72 23.75 72H17.8125C16.2378 72 14.7276 71.3679 13.6141 70.2426C12.5006 69.1174 11.875 67.5913 11.875 66V60C11.875 58.4087 12.5006 56.8826 13.6141 55.7574C14.7276 54.6321 16.2378 54 17.8125 54Z" fill="black"/>
</svg>
