<svg width="23" height="23" viewBox="0 0 23 23" fill="none" xmlns="http://www.w3.org/2000/svg">
<g clip-path="url(#clip0_347_2836)">
<path d="M22.8973 10.9667C22.7654 10.6353 19.5673 2.875 11.4997 2.875C3.43212 2.875 0.234043 10.6353 0.102152 10.9667C-0.0340508 11.3092 -0.0340508 11.6912 0.102152 12.0337C0.234043 12.3647 3.43212 20.125 11.4997 20.125C19.5673 20.125 22.7654 12.3647 22.8973 12.0333C23.0335 11.6908 23.0335 11.3092 22.8973 10.9667ZM11.4997 14.375C9.91201 14.375 8.62473 13.0877 8.62473 11.5C8.62473 9.91228 9.91201 8.625 11.4997 8.625C13.0874 8.625 14.3747 9.91228 14.3747 11.5C14.3747 13.0877 13.0874 14.375 11.4997 14.375Z" fill="white"/>
</g>
<defs>
<clipPath id="clip0_347_2836">
<rect width="23" height="23" fill="white"/>
</clipPath>
</defs>
</svg>
