<svg width="40" height="40" viewBox="0 0 40 40" fill="none" xmlns="http://www.w3.org/2000/svg">
<path d="M33.3334 20.0834C33.3022 17.5426 32.5455 15.0636 31.1525 12.9383C29.7595 10.8131 27.7884 9.13017 25.471 8.08772C23.1535 7.04527 20.5865 6.68673 18.0722 7.05432C15.5579 7.42192 13.201 8.50032 11.279 10.1626C9.35708 11.8248 7.95013 14.0016 7.22388 16.4367C6.49764 18.8718 6.48234 21.4636 7.17981 23.9071C7.87728 26.3506 9.25844 28.5438 11.1607 30.2286C13.0629 31.9134 15.4069 33.0196 17.9167 33.4168V23.9668H14.5834V20.0834H17.9167V17.1334C17.8395 16.4475 17.9139 15.753 18.1345 15.0989C18.3552 14.4449 18.7167 13.8472 19.1935 13.3481C19.6704 12.849 20.2509 12.4607 20.8942 12.2105C21.5375 11.9603 22.228 11.8543 22.9167 11.9001C23.9164 11.9138 24.9137 12.003 25.9 12.1668V15.5001H24.2334C23.946 15.4639 23.654 15.4927 23.3794 15.5844C23.1045 15.6761 22.8539 15.8284 22.6459 16.03C22.4379 16.2316 22.2779 16.4774 22.1777 16.7491C22.0774 17.0209 22.0395 17.3118 22.0667 17.6001V20.1168H25.7667L25.1667 24.0001H22.0834V33.3334C25.2332 32.8353 28.1002 31.2246 30.1642 28.7936C32.2282 26.3626 33.3525 23.2724 33.3334 20.0834Z" fill="white"/>
</svg>
