<svg width="20" height="20" viewBox="0 0 20 20" fill="none" xmlns="http://www.w3.org/2000/svg">
<path d="M17.066 0.875H3.76602C2.42252 0.875 1.75076 0.875 1.33339 1.3101C0.916016 1.7452 0.916016 2.44547 0.916016 3.84603V4.57417C0.916016 5.66966 0.916016 6.21741 1.16264 6.67149C1.40926 7.12557 1.85981 7.40738 2.76093 7.97101L5.5283 9.70197C6.1329 10.0801 6.4352 10.2692 6.65165 10.478C7.10241 10.9128 7.37989 11.4237 7.50563 12.0504C7.56602 12.3512 7.56602 12.7033 7.56602 13.4075V16.2253C7.56602 17.1854 7.56602 17.6654 7.80534 18.0397C8.04467 18.4139 8.46973 18.5985 9.31991 18.9678C11.1046 19.743 11.9969 20.1306 12.6315 19.6896C13.266 19.2486 13.266 18.2409 13.266 16.2253V13.4075C13.266 12.7033 13.266 12.3512 13.3264 12.0504C13.4521 11.4237 13.7296 10.9128 14.1804 10.478C14.3968 10.2692 14.6991 10.0801 15.3038 9.70197L18.0711 7.97101C18.9722 7.40738 19.4228 7.12557 19.6694 6.67149C19.916 6.21741 19.916 5.66966 19.916 4.57417V3.84603C19.916 2.44547 19.916 1.7452 19.4987 1.3101C19.0812 0.875 18.4095 0.875 17.066 0.875Z" fill="white"/>
</svg>
