<svg width="104" height="104" viewBox="0 0 104 104" fill="none" xmlns="http://www.w3.org/2000/svg">
<path fill-rule="evenodd" clip-rule="evenodd" d="M52 34.667C61.573 34.667 69.3334 42.4274 69.3334 52.0002C69.3334 61.5734 61.573 69.3336 52 69.3336C42.4272 69.3336 34.6667 61.5734 34.6667 52.0002C34.6667 42.4274 42.4272 34.667 52 34.667ZM60.6667 52.0002C60.6667 47.2141 56.7866 43.3336 52 43.3336C47.2134 43.3336 43.3333 47.2141 43.3333 52.0002C43.3333 56.7868 47.2134 60.6669 52 60.6669C56.7866 60.6669 60.6667 56.7868 60.6667 52.0002Z" fill="black"/>
<path fill-rule="evenodd" clip-rule="evenodd" d="M52 34.667C61.573 34.667 69.3334 42.4274 69.3334 52.0002C69.3334 61.5734 61.573 69.3336 52 69.3336C42.4272 69.3336 34.6667 61.5734 34.6667 52.0002C34.6667 42.4274 42.4272 34.667 52 34.667ZM60.6667 52.0002C60.6667 47.2141 56.7866 43.3336 52 43.3336C47.2134 43.3336 43.3333 47.2141 43.3333 52.0002C43.3333 56.7868 47.2134 60.6669 52 60.6669C56.7866 60.6669 60.6667 56.7868 60.6667 52.0002Z" fill="black"/>
<path fill-rule="evenodd" clip-rule="evenodd" d="M57.3417 4.40707C56.3658 4.33227 55.2699 4.33271 54.3764 4.33306H49.6236C48.7301 4.33271 47.6342 4.33227 46.6583 4.40707C45.5048 4.49547 43.9062 4.72024 42.1919 5.50028C40.0248 6.4862 38.1702 8.04824 36.8303 10.016C35.7699 11.5729 35.2768 13.1102 34.9934 14.2316C34.7538 15.1808 34.5679 16.2605 34.4166 17.141L33.803 20.6972L33.7909 20.7038C33.6401 20.7872 33.4902 20.8716 33.3407 20.957L33.3294 20.9632L29.2695 19.4938C28.4457 19.1954 27.433 18.8284 26.5048 18.5699C25.4059 18.2638 23.8533 17.9349 22.0064 18.0708C19.6673 18.2429 17.4187 19.0445 15.4982 20.3907C13.9819 21.4538 12.9874 22.6906 12.3301 23.6228C11.7741 24.4105 11.222 25.3354 10.7727 26.0876L8.59821 29.7265C8.12241 30.5213 7.54261 31.4906 7.09498 32.3925C6.56805 33.4543 5.92455 34.9902 5.72997 36.9226C5.48557 39.356 5.93191 41.809 7.01871 43.9999C7.8819 45.7397 9.02591 46.95 9.89344 47.7582C10.6301 48.4442 11.5145 49.147 12.2395 49.7229L15.1667 51.9997L12.2395 54.2764C11.5145 54.8527 10.6301 55.5552 9.89344 56.2416C9.02591 57.0493 7.88191 58.2596 7.01914 59.9994C5.93234 62.1904 5.48557 64.6435 5.73041 67.0771C5.92454 69.0093 6.56847 70.545 7.09541 71.6071C7.54304 72.5089 8.12284 73.4783 8.59821 74.273L10.7735 77.9126C11.2225 78.6648 11.7745 79.5891 12.3301 80.3765C12.9879 81.309 13.9819 82.5458 15.4986 83.6087C17.4187 84.9551 19.6677 85.7568 22.0064 85.9288C23.8533 86.0649 25.4059 85.7355 26.5048 85.4296C27.4335 85.1709 28.4462 84.8043 29.2699 84.5057L33.3298 83.0363L33.3407 83.0428C33.4902 83.1282 33.6401 83.2122 33.7909 83.2959L33.803 83.3024L34.4166 86.8583C34.5679 87.7388 34.7538 88.8187 34.9934 89.7677C35.2768 90.8892 35.7699 92.4266 36.8303 93.9836C38.1702 95.9514 40.0248 97.5135 42.1919 98.4994C43.9062 99.2794 45.5048 99.5043 46.6583 99.5927C47.6346 99.6672 48.7301 99.6668 49.6236 99.6663H54.3764C55.2699 99.6668 56.3658 99.6672 57.3417 99.5927C58.4952 99.5043 60.0938 99.2794 61.8083 98.4994C63.9753 97.5135 65.8299 95.9514 67.1699 93.9836C68.23 92.4266 68.7233 90.8892 69.0065 89.7677C69.2462 88.8187 69.432 87.7388 69.5836 86.8583L70.1971 83.3024L70.2091 83.2959C70.3599 83.2122 70.5101 83.1282 70.6595 83.0424L70.6705 83.0363L74.7302 84.5057C75.5538 84.8039 76.5666 85.1709 77.4951 85.4296C78.5942 85.7355 80.1466 86.0644 81.9936 85.9288C84.3325 85.7568 86.5813 84.9551 88.5017 83.6087C90.0181 82.5458 91.0124 81.309 91.67 80.3765C92.2256 79.5891 92.7778 78.6644 93.2269 77.9121L95.4019 74.273C95.8773 73.4783 96.4571 72.5089 96.9047 71.6071C97.4318 70.545 98.0755 69.0093 98.2698 67.0771C98.5145 64.6435 98.0678 62.1904 96.9811 59.9994C96.118 58.2596 94.9742 57.0493 94.1067 56.2416C93.3698 55.5552 92.4856 54.8527 91.7606 54.2764L88.9268 52.0231V51.9767L91.7607 49.7229C92.4858 49.147 93.37 48.4442 94.1068 47.7582C94.9743 46.95 96.1182 45.7397 96.9812 43.9999C98.068 41.8091 98.5147 39.356 98.27 36.9227C98.0757 34.9903 97.4319 33.4544 96.905 32.3926C96.4573 31.4907 95.8775 30.5214 95.4021 29.7266L93.2271 26.0875C92.778 25.3353 92.2257 24.4105 91.6702 23.6229C91.0126 22.6906 90.0183 21.4538 88.5018 20.3908C86.5815 19.0446 84.3327 18.243 81.9937 18.0708C80.1468 17.9349 78.5944 18.2639 77.4954 18.5699C76.5669 18.8285 75.5541 19.1955 74.7305 19.4939L70.6706 20.9633L70.6596 20.957C70.5101 20.8716 70.3599 20.7872 70.2091 20.7038L70.1971 20.6972L69.5836 17.1411C69.432 16.2605 69.2462 15.1808 69.0065 14.2316C68.7233 13.1102 68.23 11.5729 67.1699 10.016C65.8299 8.04824 63.9753 6.4862 61.8083 5.50028C60.0938 4.72024 58.4952 4.49547 57.3417 4.40707ZM42.9269 18.7903C43.2857 16.7105 43.4651 15.6706 43.9937 14.8941C44.4405 14.2381 45.0584 13.7175 45.7808 13.3888C46.6362 12.9998 47.6914 12.9998 49.8017 12.9998H54.1983C56.3086 12.9998 57.3642 12.9998 58.2192 13.3888C58.9416 13.7175 59.5595 14.2381 60.0063 14.8941C60.5349 15.6706 60.7146 16.7105 61.0734 18.7903L61.7495 22.7091C61.9907 24.1074 62.1113 24.8066 62.3669 25.344C62.6178 25.8717 62.8229 26.1601 63.2391 26.5702C63.663 26.9879 64.4474 27.4214 66.016 28.2886C66.1317 28.3526 66.2468 28.4173 66.3615 28.4828C67.8619 29.3397 68.6121 29.7682 69.1693 29.9133C69.7165 30.0558 70.0573 30.0851 70.6208 30.0382C71.1946 29.9904 71.8373 29.7578 73.1228 29.2926L77.5149 27.703C79.4616 26.9985 80.435 26.6463 81.3577 26.7142C82.1373 26.7715 82.8869 27.0387 83.527 27.4874C84.2846 28.0185 84.8157 28.9071 85.8778 30.6841L87.8684 34.0148C88.9896 35.8909 89.5503 36.829 89.6468 37.7897C89.7284 38.6008 89.5795 39.4185 89.2172 40.1488C88.7882 41.0138 87.9329 41.694 86.2223 43.0544L83.0811 45.5525C81.9898 46.4201 81.4442 46.8543 81.1022 47.3192C80.7324 47.8223 80.5747 48.1491 80.4113 48.7514C80.2601 49.3087 80.2601 50.2057 80.2601 51.9997C80.2601 53.7937 80.2601 54.6907 80.4113 55.2484C80.5748 55.8507 80.7324 56.1774 81.1021 56.6801C81.4442 57.1455 81.9898 57.5793 83.0811 58.4472L86.222 60.945C87.9327 62.3056 88.788 62.9855 89.2171 63.8509C89.5793 64.5811 89.7282 65.3988 89.6467 66.21C89.55 67.1707 88.9894 68.1084 87.8682 69.9847L85.8776 73.3153C84.8155 75.0924 84.2845 75.9812 83.5269 76.512C82.8867 76.961 82.1371 77.2279 81.3575 77.2855C80.4348 77.3531 79.4614 77.0008 77.5147 76.2967L73.1227 74.7072C71.8373 74.2418 71.1945 74.0091 70.6208 73.9614C70.0573 73.9146 69.7165 73.9437 69.1693 74.0863C68.6121 74.2314 67.8619 74.66 66.3615 75.5167C66.2468 75.5821 66.1317 75.6471 66.016 75.7108C64.4474 76.5779 63.663 77.0117 63.2392 77.4294C62.8229 77.8393 62.6178 78.1279 62.3669 78.6557C62.1113 79.1931 61.9907 79.892 61.7495 81.2904L61.0734 85.209C60.7146 87.289 60.5349 88.329 60.0063 89.1056C59.5595 89.7612 58.9416 90.2821 58.2192 90.6105C57.3642 90.9997 56.3086 90.9997 54.1983 90.9997H49.8017C47.6914 90.9997 46.6362 90.9997 45.7808 90.6105C45.0584 90.2821 44.4405 89.7612 43.9937 89.1056C43.4651 88.329 43.2857 87.289 42.9269 85.209L42.2504 81.2904C42.0095 79.892 41.8886 79.1931 41.6334 78.6557C41.3825 78.1279 41.1771 77.8393 40.7611 77.4294C40.3368 77.0117 39.5525 76.5779 37.9843 75.7108C37.8686 75.6471 37.7533 75.5821 37.6389 75.5167C36.1383 74.66 35.3882 74.2314 34.8309 74.0863C34.2836 73.9437 33.943 73.9146 33.3792 73.9614C32.8055 74.0091 32.1629 74.2418 30.8776 74.7072L26.4853 76.2967C24.5388 77.0013 23.5651 77.3536 22.6425 77.2855C21.863 77.2279 21.1133 76.961 20.4733 76.512C19.7158 75.9812 19.1845 75.0924 18.1224 73.3153L16.1317 69.9847C15.0107 68.1088 14.4499 67.1707 14.3533 66.21C14.2718 65.3988 14.4209 64.5811 14.7832 63.8509C15.2122 62.986 16.0676 62.3056 17.7779 60.945L20.9187 58.4472C22.0103 57.5793 22.5559 57.1455 22.8978 56.6801C23.2674 56.1774 23.4251 55.8507 23.5889 55.2484C23.7402 54.6911 23.7402 53.7937 23.7402 51.9997C23.7402 50.2057 23.7402 49.3087 23.5889 48.7514C23.4251 48.1491 23.2674 47.8223 22.8978 47.3192C22.5559 46.8543 22.0103 46.4201 20.9192 45.5525L17.7779 43.0544C16.0671 41.694 15.2117 41.0138 14.7827 40.1487C14.4205 39.4184 14.2718 38.6008 14.3533 37.7896C14.4499 36.8289 15.0102 35.8909 16.1317 34.0148L18.1224 30.6841C19.1845 28.907 19.7154 28.0185 20.4728 27.4874C21.1133 27.0387 21.8625 26.7714 22.6425 26.7141C23.5651 26.6462 24.5384 26.9984 26.4853 27.703L30.8772 29.2925C32.1629 29.7578 32.8055 29.9904 33.3792 30.0381C33.943 30.0851 34.2836 30.0557 34.8309 29.9132C35.3882 29.7682 36.1383 29.3397 37.6385 28.4828C37.7533 28.4173 37.8686 28.3526 37.9838 28.2886C39.5525 27.4214 40.3368 26.9879 40.7611 26.5702C41.1771 26.1601 41.3825 25.8717 41.6334 25.344C41.8886 24.8066 42.0095 24.1074 42.2504 22.7091L42.9269 18.7903Z" fill="black"/>
</svg>
