<svg width="34" height="34" viewBox="0 0 34 34" fill="none" xmlns="http://www.w3.org/2000/svg">
<path d="M21.6834 11.404C20.645 11.2313 17.9686 11.2427 16.1925 11.8885C14.416 12.5343 11.1857 14.553 10.2168 14.8766C9.24784 15.1993 9.1669 16.4918 11.347 16.7336C13.5275 16.9763 15.4654 15.6028 15.9498 15.3611C16.4343 15.1184 21.118 15.8456 21.118 15.8456L22.5915 16.2087L25.9889 20.8009C26.5851 20.2831 27.7641 19.184 28.0627 18.3487C28.1716 18.0445 28.3335 17.7649 28.511 17.5165L23.6972 10.8774C23.0831 11.2255 22.342 11.5139 21.6834 11.404Z" fill="#504B38"/>
<path d="M21.6835 16.8751L20.9695 16.803C20.0327 16.6579 17.3836 16.2808 16.3892 16.2808C16.3452 16.2808 16.3105 16.2812 16.2845 16.2825C16.2445 16.3053 16.1983 16.3318 16.153 16.3581C15.4474 16.7692 13.794 17.7315 11.8685 17.7315C11.6574 17.7315 11.446 17.7196 11.2403 17.6967C10.9282 17.662 10.6538 17.6084 10.4111 17.5407C10.641 17.6414 10.8529 17.7856 11.0341 17.9707C11.319 18.2617 11.4952 18.6187 11.5651 18.9919C11.7309 18.9475 11.9028 18.9229 12.0786 18.9229C12.6175 18.9229 13.1218 19.1348 13.4981 19.5199C13.8692 19.8988 14.0701 20.4 14.0643 20.9302C14.0643 20.9354 14.0635 20.9408 14.0635 20.946C14.6002 20.9477 15.1023 21.1597 15.4777 21.543C15.8487 21.922 16.0497 22.4231 16.044 22.9533C16.0422 23.1362 16.0141 23.3146 15.9644 23.4862C16.3451 23.5657 16.6938 23.7552 16.9725 24.0401C17.7383 24.8231 17.7247 26.0825 16.9421 26.8484L16.5505 27.2317C16.5522 27.2317 16.554 27.2317 16.5557 27.2317C17.2143 27.1843 17.7686 26.7781 17.9238 26.1661C18.192 26.3775 18.5296 26.5045 18.8976 26.5045C19.7672 26.5045 20.4723 25.7998 20.4723 24.9298C20.4723 24.8384 20.463 24.7496 20.4476 24.6625C20.7246 24.9039 21.0855 25.0511 21.4817 25.0511C22.3512 25.0511 23.0564 24.3459 23.0564 23.4764C23.2428 23.5542 23.4472 23.5977 23.6618 23.5977C24.5318 23.5977 25.2365 22.8926 25.2365 22.023C25.2365 21.3627 24.9138 20.9328 24.1462 20.0447L21.6835 16.8751Z" fill="#504B38"/>
<path d="M10.3416 18.6485C9.94865 18.2471 9.30504 18.2401 8.90368 18.6327L7.45072 20.0548C7.04936 20.4474 7.04232 21.091 7.43491 21.4924C7.8279 21.8937 8.47151 21.9008 8.87287 21.5077L10.3262 20.086C10.7271 19.6934 10.7342 19.0498 10.3416 18.6485Z" fill="#504B38"/>
<path d="M12.8054 20.1977C12.4128 19.7958 11.7692 19.7888 11.3678 20.1818L9.43039 22.0774C9.02856 22.4704 9.02199 23.114 9.41452 23.515C9.80711 23.9168 10.4512 23.9238 10.8525 23.5308L12.7899 21.6352C13.1913 21.2426 13.1983 20.599 12.8054 20.1977Z" fill="#504B38"/>
<path d="M14.7847 22.2209C14.3921 21.8196 13.7485 21.812 13.3471 22.2051L11.4097 24.1012C11.0083 24.4937 11.0013 25.1373 11.3939 25.5392C11.7865 25.9401 12.4301 25.9472 12.8319 25.5541L14.7693 23.6585C15.1707 23.2654 15.1777 22.6218 14.7847 22.2209Z" fill="#504B38"/>
<path d="M16.2802 24.718C15.8876 24.3166 15.244 24.3092 14.8427 24.7022L13.7124 25.8083C13.3111 26.2008 13.304 26.8444 13.6966 27.2458C14.0896 27.6472 14.7332 27.6538 15.1346 27.2616L16.2648 26.1556C16.6663 25.763 16.6728 25.1194 16.2802 24.718Z" fill="#504B38"/>
<path d="M33.9074 15.6046L27.4134 6.64863C27.2564 6.43148 26.9535 6.3836 26.7368 6.54052L23.8604 8.62647C23.6436 8.78339 23.5953 9.08634 23.7527 9.30302L30.2467 18.2594C30.4036 18.4762 30.7065 18.5245 30.9232 18.3671L33.8001 16.2816C34.0164 16.1241 34.0648 15.8213 33.9074 15.6046ZM31.6979 16.4091C31.337 16.6711 30.8318 16.5902 30.5699 16.2293C30.3083 15.8683 30.3887 15.3637 30.7501 15.1017C31.111 14.8396 31.6157 14.9205 31.8777 15.281C32.1392 15.6424 32.0588 16.1475 31.6979 16.4091Z" fill="#504B38"/>
<path d="M9.6145 17.3736C9.7675 17.3736 9.91698 17.393 10.062 17.4259C8.84119 16.9577 8.63899 16.1014 8.60731 15.7994C8.52112 14.986 9.04473 14.2453 9.91034 13.9569C10.2585 13.8408 11.1711 13.3432 12.0539 12.8623C13.0009 12.3457 14.0401 11.7791 14.944 11.3622C13.7984 11.2695 12.7248 11.3086 12.1515 11.404C11.5343 11.5069 10.845 11.2603 10.2554 10.9429L5.40381 17.6334C5.5493 17.8519 5.67986 18.0911 5.7717 18.3487C5.90757 18.7285 6.22585 19.1628 6.5885 19.5726C6.64521 19.4996 6.70544 19.4283 6.77317 19.362L8.22607 17.9398C8.59941 17.5749 9.09268 17.3736 9.6145 17.3736Z" fill="#504B38"/>
<path d="M10.1399 8.62608L7.26299 6.54052C7.0467 6.3836 6.74382 6.43148 6.58644 6.64863L0.0923727 15.6046C-0.0650101 15.8213 -0.0162015 16.1242 0.200084 16.2817L3.07654 18.3672C3.29329 18.5246 3.59617 18.4762 3.75315 18.259L10.2472 9.30309C10.4045 9.0864 10.3562 8.78346 10.1399 8.62608ZM8.21744 9.62668C7.95587 9.98714 7.45072 10.068 7.0898 9.80605C6.72842 9.54441 6.64793 9.03932 6.90997 8.6784C7.17154 8.31749 7.6767 8.2366 8.03761 8.49858C8.399 8.76061 8.47902 9.2653 8.21744 9.62668Z" fill="#504B38"/>
</svg>
