<svg width="31" height="33" viewBox="0 0 31 33" fill="none" xmlns="http://www.w3.org/2000/svg">
<g filter="url(#filter0_d_726_11)">
<path d="M26.4237 12.7009L16.2987 2.57594C16.1941 2.47049 16.0697 2.3868 15.9326 2.32968C15.7955 2.27257 15.6484 2.24316 15.4999 2.24316C15.3514 2.24316 15.2044 2.27257 15.0673 2.32968C14.9302 2.3868 14.8057 2.47049 14.7012 2.57594L4.57616 12.7009C4.42006 12.8591 4.31431 13.06 4.27227 13.2783C4.23022 13.4965 4.25376 13.7223 4.33991 13.9272C4.42431 14.1326 4.56763 14.3085 4.75182 14.4326C4.936 14.5567 5.15281 14.6236 5.37491 14.6247H6.49991V22.8372C6.52042 23.3634 6.74856 23.8601 7.1344 24.2185C7.52023 24.5769 8.03235 24.7679 8.55866 24.7497H11.5624C11.8608 24.7497 12.1469 24.6312 12.3579 24.4202C12.5689 24.2092 12.6874 23.9231 12.6874 23.6247V18.1122C12.6874 17.8138 12.8059 17.5277 13.0169 17.3167C13.2279 17.1057 13.514 16.9872 13.8124 16.9872H17.1874C17.4858 16.9872 17.7719 17.1057 17.9829 17.3167C18.1939 17.5277 18.3124 17.8138 18.3124 18.1122V23.6247C18.3124 23.9231 18.4309 24.2092 18.6419 24.4202C18.8529 24.6312 19.139 24.7497 19.4374 24.7497H22.4412C22.9675 24.7679 23.4796 24.5769 23.8654 24.2185C24.2513 23.8601 24.4794 23.3634 24.4999 22.8372V14.6247H25.6249C25.847 14.6236 26.0638 14.5567 26.248 14.4326C26.4322 14.3085 26.5755 14.1326 26.6599 13.9272C26.7461 13.7223 26.7696 13.4965 26.7276 13.2783C26.6855 13.06 26.5798 12.8591 26.4237 12.7009Z" fill="#504B38"/>
</g>
<defs>
<filter id="filter0_d_726_11" x="-2" y="0" width="35" height="35" filterUnits="userSpaceOnUse" color-interpolation-filters="sRGB">
<feFlood flood-opacity="0" result="BackgroundImageFix"/>
<feColorMatrix in="SourceAlpha" type="matrix" values="0 0 0 0 0 0 0 0 0 0 0 0 0 0 0 0 0 0 127 0" result="hardAlpha"/>
<feOffset dy="4"/>
<feGaussianBlur stdDeviation="2"/>
<feComposite in2="hardAlpha" operator="out"/>
<feColorMatrix type="matrix" values="0 0 0 0 0 0 0 0 0 0 0 0 0 0 0 0 0 0 0.25 0"/>
<feBlend mode="normal" in2="BackgroundImageFix" result="effect1_dropShadow_726_11"/>
<feBlend mode="normal" in="SourceGraphic" in2="effect1_dropShadow_726_11" result="shape"/>
</filter>
</defs>
</svg>
