<svg width="23" height="23" viewBox="0 0 23 23" fill="none" xmlns="http://www.w3.org/2000/svg">
<path fill-rule="evenodd" clip-rule="evenodd" d="M21.0827 7.94772C21.0827 11.2787 18.3714 13.9789 15.0267 13.9789C14.4164 13.9789 13.0268 13.8386 12.3508 13.2776L11.5058 14.1193C11.009 14.614 11.1431 14.7597 11.3641 14.9997C11.4563 15.0998 11.5637 15.2164 11.6466 15.3816C11.6466 15.3816 12.3508 16.3634 11.6466 17.3452C11.2241 17.9062 10.0411 18.6917 8.68908 17.3452L8.4074 17.6257C8.4074 17.6257 9.25242 18.6075 8.54824 19.5893C8.12573 20.1504 6.99904 20.7114 6.01319 19.7296L5.02734 20.7114C4.35132 21.3847 3.52511 20.9919 3.1965 20.7114L2.35149 19.8698C1.5628 19.0844 2.02287 18.2335 2.35149 17.9062L9.67497 10.6127C9.67497 10.6127 8.97079 9.49058 8.97079 7.94772C8.97079 4.61677 11.6821 1.9165 15.0267 1.9165C18.3714 1.9165 21.0827 4.61677 21.0827 7.94772ZM15.027 10.0517C16.1936 10.0517 17.1394 9.10976 17.1394 7.9478C17.1394 6.78584 16.1936 5.84389 15.027 5.84389C13.8602 5.84389 12.9144 6.78584 12.9144 7.9478C12.9144 9.10976 13.8602 10.0517 15.027 10.0517Z" fill="white"/>
</svg>
