<svg width="39" height="39" viewBox="0 0 39 39" fill="none" xmlns="http://www.w3.org/2000/svg">
<path d="M31.4266 23.5462L29.8016 20.8487C29.4604 20.2475 29.1516 19.11 29.1516 18.4437V14.3325C29.1516 10.5137 26.9091 7.215 23.6754 5.67125C22.8304 4.17625 21.2704 3.25 19.4829 3.25C17.7116 3.25 16.1192 4.20875 15.2742 5.72C12.1054 7.29625 9.91167 10.5625 9.91167 14.3325V18.4437C9.91167 19.11 9.60292 20.2475 9.26167 20.8325L7.62042 23.5462C6.97042 24.635 6.82417 25.8375 7.23042 26.9425C7.62042 28.0312 8.54667 28.8762 9.74917 29.2825C12.9017 30.355 16.2167 30.875 19.5316 30.875C22.8466 30.875 26.1616 30.355 29.3141 29.2987C30.4516 28.925 31.3291 28.0637 31.7516 26.9425C32.1741 25.8212 32.0604 24.5862 31.4266 23.5462Z" fill="#504B38"/>
<path d="M24.0992 32.5163C23.4167 34.4013 21.613 35.75 19.5005 35.75C18.2167 35.75 16.9492 35.23 16.0555 34.3038C15.5355 33.8163 15.1455 33.1662 14.918 32.5C15.1292 32.5325 15.3405 32.5487 15.568 32.5812C15.9417 32.63 16.3317 32.6787 16.7217 32.7112C17.648 32.7925 18.5905 32.8412 19.533 32.8412C20.4592 32.8412 21.3855 32.7925 22.2955 32.7112C22.6367 32.6787 22.978 32.6625 23.303 32.6137C23.563 32.5812 23.823 32.5488 24.0992 32.5163Z" fill="#504B38"/>
</svg>
