<svg width="25" height="17" viewBox="0 0 25 17" fill="none" xmlns="http://www.w3.org/2000/svg">
<path d="M23.4688 4.28125H20.9375V1.75C20.9375 1.24375 20.6 0.90625 20.0938 0.90625H1.53125C1.025 0.90625 0.6875 1.24375 0.6875 1.75V11.875C0.6875 12.3813 1.025 12.7188 1.53125 12.7188H4.0625H20.0938C20.6 12.7188 20.9375 13.0562 20.9375 13.5625C20.9375 14.0688 20.6 14.4062 20.0938 14.4062H4.0625V15.25C4.0625 15.7563 4.4 16.0938 4.90625 16.0938H23.4688C23.975 16.0938 24.3125 15.7563 24.3125 15.25V5.125C24.3125 4.61875 23.975 4.28125 23.4688 4.28125ZM19.25 7.74063C17.5625 8.07813 16.2969 9.34375 15.9594 11.0312H5.66563C5.32813 9.34375 4.0625 8.07813 2.375 7.74063V5.88437C4.0625 5.54687 5.32813 4.28125 5.66563 2.59375H15.9594C16.2969 4.28125 17.5625 5.54687 19.25 5.88437V7.74063Z" fill="#504B38"/>
</svg>
