<svg width="23" height="23" viewBox="0 0 23 23" fill="none" xmlns="http://www.w3.org/2000/svg">
<g clip-path="url(#clip0_362_306)">
<path d="M18.6875 6.46875H4.3125V2.15625C4.3125 1.36562 4.95937 0.71875 5.75 0.71875H17.25C18.0406 0.71875 18.6875 1.36562 18.6875 2.15625V6.46875ZM4.3125 13.6562H18.6875V20.8438C18.6875 21.6344 18.0406 22.2812 17.25 22.2812H5.75C4.95937 22.2812 4.3125 21.6344 4.3125 20.8438V13.6562ZM7.1875 16.5312C7.1875 16.928 7.50878 17.25 7.90625 17.25H15.0938C15.4912 17.25 15.8125 16.928 15.8125 16.5312C15.8125 16.1345 15.4912 15.8125 15.0938 15.8125H7.90625C7.50878 15.8125 7.1875 16.1345 7.1875 16.5312ZM7.1875 19.4062C7.1875 19.803 7.50878 20.125 7.90625 20.125H15.0938C15.4912 20.125 15.8125 19.803 15.8125 19.4062C15.8125 19.0095 15.4912 18.6875 15.0938 18.6875H7.90625C7.50878 18.6875 7.1875 19.0095 7.1875 19.4062ZM22.2812 8.625V13.6562C22.2812 14.4469 21.6344 15.0938 20.8438 15.0938H19.4062V12.9375H3.59375V15.0938H2.15625C1.36562 15.0938 0.71875 14.4469 0.71875 13.6562V8.625C0.71875 7.83437 1.36562 7.1875 2.15625 7.1875H20.8438C21.6344 7.1875 22.2812 7.83437 22.2812 8.625ZM3.59375 9.34375C3.59375 8.947 3.27175 8.625 2.875 8.625C2.47825 8.625 2.15625 8.947 2.15625 9.34375C2.15625 9.7405 2.47825 10.0625 2.875 10.0625C3.27175 10.0625 3.59375 9.7405 3.59375 9.34375ZM5.75 9.34375C5.75 8.947 5.428 8.625 5.03125 8.625C4.6345 8.625 4.3125 8.947 4.3125 9.34375C4.3125 9.7405 4.6345 10.0625 5.03125 10.0625C5.428 10.0625 5.75 9.7405 5.75 9.34375Z" fill="white"/>
</g>
<defs>
<clipPath id="clip0_362_306">
<rect width="23" height="23" fill="white"/>
</clipPath>
</defs>
</svg>
