<svg width="36" height="36" viewBox="0 0 36 36" fill="none" xmlns="http://www.w3.org/2000/svg">
<path fill-rule="evenodd" clip-rule="evenodd" d="M5.06628 7.62361C4.5 8.43042 4.5 10.8286 4.5 15.6251V17.9871C4.5 26.4441 10.8584 30.5483 14.8478 32.291C15.93 32.7636 16.4711 33 18 33V3C16.7829 3 15.6075 3.40236 13.2566 4.20708L12.3974 4.50119C7.88748 6.04494 5.63255 6.81681 5.06628 7.62361Z" fill="#504B38"/>
<path opacity="0.5" d="M19 4.10645C19.4961 4.2036 20.075 4.3694 20.8525 4.62402L22.4199 5.15332L23.2783 5.44727C25.5457 6.22339 27.2053 6.79202 28.3711 7.26562C28.9529 7.50198 29.3794 7.70143 29.6816 7.87695C29.9187 8.01463 30.0336 8.11231 30.084 8.16309L30.1152 8.19824C30.136 8.22795 30.2091 8.36465 30.2793 8.72852C30.3464 9.07661 30.3962 9.55052 30.4307 10.1826C30.4996 11.4486 30.5 13.2141 30.5 15.625V17.9873C30.4999 25.5819 24.9943 29.434 21.1211 31.209L20.752 31.375C20.1969 31.6175 19.8656 31.7589 19.4961 31.8535C19.3486 31.8913 19.1877 31.9203 19 31.9443V4.10645Z" fill="#EBE5C2" stroke="#504B38" stroke-width="2"/>
</svg>
