<svg width="27" height="21" viewBox="0 0 27 21" fill="none" xmlns="http://www.w3.org/2000/svg">
<path d="M0 3.75C0 2.85489 0.355579 1.99645 0.988515 1.36351C1.62145 0.730579 2.47989 0.375 3.375 0.375H23.625C24.5201 0.375 25.3785 0.730579 26.0115 1.36351C26.6444 1.99645 27 2.85489 27 3.75V5.4375H0V3.75ZM0 8.8125V17.25C0 18.1451 0.355579 19.0035 0.988515 19.6365C1.62145 20.2694 2.47989 20.625 3.375 20.625H23.625C24.5201 20.625 25.3785 20.2694 26.0115 19.6365C26.6444 19.0035 27 18.1451 27 17.25V8.8125H0ZM5.0625 12.1875H6.75C7.19755 12.1875 7.62677 12.3653 7.94324 12.6818C8.25971 12.9982 8.4375 13.4274 8.4375 13.875V15.5625C8.4375 16.0101 8.25971 16.4393 7.94324 16.7557C7.62677 17.0722 7.19755 17.25 6.75 17.25H5.0625C4.61495 17.25 4.18572 17.0722 3.86926 16.7557C3.55279 16.4393 3.375 16.0101 3.375 15.5625V13.875C3.375 13.4274 3.55279 12.9982 3.86926 12.6818C4.18572 12.3653 4.61495 12.1875 5.0625 12.1875Z" fill="#504B38"/>
</svg>
